<svg width="150" height="150" viewBox="0 0 150 150" fill="none" xmlns="http://www.w3.org/2000/svg">
<rect width="150" height="150" fill="#F7EDF0"/>
<path d="M128.253 138.336C128.079 137.308 127.898 136.282 127.71 135.254C125.558 123.521 122.039 104.866 108.61 94.7804C109.6 88.2112 110.108 77.9993 110.108 62.8098C110.108 38.5617 94.3834 18.9375 74.9999 18.9375C61.7819 18.9375 53.377 28.304 53.377 28.304C45.1894 36.3468 39.8921 48.7953 39.8921 62.8577C39.8921 78.0038 40.422 88.2189 41.3871 94.7637C27.8966 104.749 24.4434 123.555 22.2892 135.295C22.1022 136.321 21.9211 137.348 21.7468 138.374C20.8255 143.795 24.4741 148.936 29.895 149.858C30.4598 149.954 31.0201 150 31.5744 150L66.4204 149.991L66.4212 149.984L118.425 149.961C118.978 149.961 119.54 149.915 120.104 149.818C125.525 148.898 129.174 143.758 128.253 138.336ZM75.01 115.567L56.4968 106.135L66.0995 90.9963C68.7029 92.3242 72.1329 93.0772 74.9999 93.0772C77.8785 93.0772 81.2489 92.3093 83.8615 90.9703L93.4401 106.139L75.01 115.567ZM74.9999 86.524C57.3785 86.524 49.7918 62.6811 51.3056 55.2362C70.6775 38.3878 87.8285 39.5515 87.8285 39.5515C87.8285 39.5515 90.9034 49.1009 98.8119 60.6228C97.422 71.9794 85.9159 86.524 74.9999 86.524Z" fill="#E991AA"/>
</svg>
