<svg width="150" height="150" viewBox="0 0 150 150" fill="none" xmlns="http://www.w3.org/2000/svg">
<g clip-path="url(#clip0_248_356)">
<rect width="150" height="150" fill="#E8F7FC"/>
<path d="M122.436 107.77C119.459 101.165 101.321 95.4515 101.321 95.4515C91.6477 92.0408 91.5831 88.6348 91.5831 88.6348C72.5499 126.134 58.1134 88.7363 58.1134 88.7363C56.7889 93.7946 37.2156 99.739 37.2156 99.739C31.502 101.94 29.079 105.236 29.079 105.236C20.6146 117.775 19.627 145.707 19.627 145.707C19.7377 152.076 22.4792 152.74 22.4792 152.74C41.9462 161.426 72.4576 162.968 72.4576 162.968C103.804 163.628 126.617 154.065 126.617 154.065C129.927 151.979 130.023 150.322 130.023 150.322C132.336 130.315 122.436 107.77 122.436 107.77Z" fill="#85C9E8"/>
<path d="M53.3177 68.821C54.7715 80.876 65.1466 93.374 74.5616 93.374C85.3798 93.374 95.6625 80.2391 97.264 68.821C97.8732 68.3871 98.8747 67.3395 99.2393 64.958C99.2393 64.958 101.552 56.6921 98.4917 57.5782C99.5624 54.3891 103.093 41.9741 96.2394 34.2575C96.2394 34.2575 93.0364 29.8776 85.2321 27.5561C84.9598 27.33 84.6829 27.0992 84.3644 26.8777C84.3644 26.8777 84.5352 27.0761 84.789 27.4223C84.3459 27.2977 83.8752 27.1869 83.4091 27.0761C82.9891 26.6331 82.5091 26.1762 81.9737 25.6916C81.9737 25.6916 82.4445 26.1762 83.0121 26.9838C82.7952 26.9377 82.606 26.8823 82.3937 26.8454C82.0383 26.3054 81.6091 25.7516 81.0599 25.1885C81.0599 25.1885 81.2907 25.6223 81.5907 26.3054C80.1507 25.2485 77.2616 22.807 77.2616 20.0748C77.2616 20.0748 75.457 20.9194 74.4001 22.4609C74.8155 21.1917 75.5124 20.0148 76.6477 19.041C76.6477 19.041 75.457 19.6502 74.3632 20.9702C73.5094 21.4502 71.5664 22.7794 70.911 25.1424L70.2926 24.8285C70.5972 24.1593 71.0218 23.4532 71.6033 22.7424C71.6033 22.7424 70.7587 23.4947 70.0203 24.6947L68.7695 24.067C69.1434 23.3701 69.6326 22.6501 70.2972 21.9486C70.2972 21.9486 69.6233 22.4655 68.9126 23.3378C69.1111 22.5255 69.0787 21.5932 66.5496 24.3624C66.5496 24.3624 55.1546 29.3053 51.8593 39.5373C51.8593 39.5373 49.9209 44.1571 52.4916 57.749C48.8409 56.0229 51.3285 64.9534 51.3285 64.9534C51.7024 67.3395 52.7039 68.3825 53.3177 68.821ZM74.0217 21.4225C73.4678 22.1932 72.9878 23.1532 72.7571 24.3301L72.3602 24.1778C72.6694 23.1901 73.1909 22.2394 74.0217 21.4225Z" fill="#85C9E8"/>
</g>
<defs>
<clipPath id="clip0_248_356">
<rect width="150" height="150" fill="white"/>
</clipPath>
</defs>
</svg>
