<svg xmlns="http://www.w3.org/2000/svg" version="1.1" xmlns:xlink="http://www.w3.org/1999/xlink" xmlns:svgjs="http://svgjs.dev/svgjs" width="180" height="100" viewBox="0 0 1500 386"><g transform="matrix(1,0,0,1,-0.9090909090911055,-1.8021511950143179)"><svg viewBox="0 0 396 102" data-background-color="#ffffff" preserveAspectRatio="xMidYMid meet" height="386" width="1500" xmlns="http://www.w3.org/2000/svg" xmlns:xlink="http://www.w3.org/1999/xlink"><g id="tight-bounds" transform="matrix(1,0,0,1,0.24000000000003752,0.47621611888979487)"><svg viewBox="0 0 395.5199999999999 101.04756776222044" height="101.04756776222044" width="395.5199999999999"><g><svg viewBox="0 0 395.5199999999999 101.04756776222044" height="101.04756776222044" width="395.5199999999999"><g><svg viewBox="0 0 395.5199999999999 101.04756776222044" height="101.04756776222044" width="395.5199999999999"><g id="textblocktransform"><svg viewBox="0 0 395.5199999999999 101.04756776222044" height="101.04756776222044" width="395.5199999999999" id="textblock"><g><svg viewBox="0 0 395.5199999999999 55.33859068939201" height="55.33859068939201" width="395.5199999999999"><g transform="matrix(1,0,0,1,0,0)"><svg width="395.5199999999999" viewBox="1.4 -27.15 196.54 27.5" height="55.33859068939201" data-palette-color="#1c4b82"><g class="wordmark-text-0" data-fill-palette-color="primary" id="text-0"><path d="M15.85-27.1L15.85-27.1Q20.15-27.1 23.4-25.4 26.65-23.7 28.45-20.63 30.25-17.55 30.25-13.45L30.25-13.45Q30.25-9.35 28.45-6.25 26.65-3.15 23.4-1.45 20.15 0.25 15.85 0.25L15.85 0.25Q11.55 0.25 8.28-1.45 5-3.15 3.2-6.25 1.4-9.35 1.4-13.45L1.4-13.45Q1.4-17.55 3.2-20.63 5-23.7 8.28-25.4 11.55-27.1 15.85-27.1ZM15.85-20.95L15.85-20.95Q13.85-20.95 12.33-20 10.8-19.05 9.95-17.32 9.1-15.6 9.1-13.35L9.1-13.35Q9.1-11.1 9.95-9.38 10.8-7.65 12.33-6.68 13.85-5.7 15.85-5.7L15.85-5.7Q17.85-5.7 19.35-6.68 20.85-7.65 21.7-9.38 22.55-11.1 22.55-13.35L22.55-13.35Q22.55-15.6 21.7-17.32 20.85-19.05 19.35-20 17.85-20.95 15.85-20.95ZM51.95-27.15L51.95-20.2Q49.25-20.45 47.22-19.55 45.2-18.65 44.12-16.95 43.05-15.25 43.05-12.9L43.05-12.9 41.1-13.25Q41.1-17.65 42.42-20.75 43.75-23.85 46.2-25.5 48.65-27.15 51.95-27.15L51.95-27.15ZM35.35 0L35.35-26.85 43.05-26.85 43.05 0 35.35 0ZM75 0L75-14.7Q75-17.35 73.62-18.88 72.25-20.4 69.85-20.4L69.85-20.4Q67.05-20.3 65.45-18.3 63.85-16.3 63.85-13.25L63.85-13.25 61.9-13.25Q61.9-17.95 63.25-21.03 64.6-24.1 67.07-25.63 69.55-27.15 72.95-27.15L72.95-27.15Q75.95-27.15 78.12-25.88 80.3-24.6 81.47-22.3 82.65-20 82.65-16.85L82.65-16.85 82.65 0 75 0ZM93.8 0L93.8-14.7Q93.8-17.35 92.4-18.88 91-20.4 88.59-20.4L88.59-20.4Q85.84-20.3 84.25-18.3 82.65-16.3 82.65-13.25L82.65-13.25 80.7-13.25Q80.7-17.95 82.05-21.03 83.4-24.1 85.87-25.63 88.34-27.15 91.75-27.15L91.75-27.15Q94.75-27.15 96.92-25.88 99.1-24.6 100.27-22.3 101.45-20 101.45-16.85L101.45-16.85 101.45 0 93.8 0ZM56.15 0L56.15-26.85 63.85-26.85 63.85 0 56.15 0ZM124.44-11.65L117.59-11.65Q115.39-11.65 114.29-10.9 113.19-10.15 113.19-8.5L113.19-8.5Q113.19-6.9 114.32-5.98 115.44-5.05 117.39-5.05L117.39-5.05Q119.09-5.05 120.42-5.63 121.74-6.2 122.62-7.18 123.49-8.15 123.69-9.45L123.69-9.45 124.84-5.15Q123.69-2.45 121.24-1.05 118.79 0.35 115.24 0.35L115.24 0.35Q112.39 0.35 110.32-0.75 108.24-1.85 107.12-3.75 105.99-5.65 105.99-8.05L105.99-8.05Q105.99-11.8 108.64-13.95 111.29-16.1 116.24-16.15L116.24-16.15 124.44-16.15 124.44-11.65ZM123.69 0L123.64-16.65Q123.64-18.85 122.22-20.1 120.79-21.35 118.04-21.35L118.04-21.35Q116.24-21.35 114.19-20.73 112.14-20.1 110.04-18.95L110.04-18.95 107.64-23.95Q109.64-25 111.54-25.7 113.44-26.4 115.44-26.78 117.44-27.15 119.79-27.15L119.79-27.15Q125.24-27.15 128.19-24.6 131.14-22.05 131.19-17.55L131.19-17.55 131.24 0 123.69 0ZM157.04 0L157.04-14.7Q157.04-17.35 155.62-18.85 154.19-20.35 151.74-20.35L151.74-20.35Q148.89-20.3 147.24-18.3 145.59-16.3 145.59-13.25L145.59-13.25 143.64-13.25Q143.64-17.95 145.02-21.03 146.39-24.1 148.92-25.63 151.44-27.15 154.89-27.15L154.89-27.15Q157.89-27.15 160.12-25.88 162.34-24.6 163.54-22.3 164.74-20 164.74-16.85L164.74-16.85 164.74 0 157.04 0ZM137.89 0L137.89-26.85 145.59-26.85 145.59 0 137.89 0ZM183.54-27.1L183.54-27.1Q187.84-27.1 191.09-25.4 194.34-23.7 196.14-20.63 197.94-17.55 197.94-13.45L197.94-13.45Q197.94-9.35 196.14-6.25 194.34-3.15 191.09-1.45 187.84 0.25 183.54 0.25L183.54 0.25Q179.24 0.25 175.96-1.45 172.69-3.15 170.89-6.25 169.09-9.35 169.09-13.45L169.09-13.45Q169.09-17.55 170.89-20.63 172.69-23.7 175.96-25.4 179.24-27.1 183.54-27.1ZM183.54-20.95L183.54-20.95Q181.54-20.95 180.01-20 178.49-19.05 177.64-17.32 176.79-15.6 176.79-13.35L176.79-13.35Q176.79-11.1 177.64-9.38 178.49-7.65 180.01-6.68 181.54-5.7 183.54-5.7L183.54-5.7Q185.54-5.7 187.04-6.68 188.54-7.65 189.39-9.38 190.24-11.1 190.24-13.35L190.24-13.35Q190.24-15.6 189.39-17.32 188.54-19.05 187.04-20 185.54-20.95 183.54-20.95Z" fill="#1c4b82" data-fill-palette-color="primary"></path></g></svg></g></svg></g><g transform="matrix(1,0,0,1,0,68.40270382498092)"><svg viewBox="0 0 395.5199999999999 32.64486393723952" height="32.64486393723952" width="395.5199999999999"><g transform="matrix(1,0,0,1,0,0)"><svg width="395.5199999999999" viewBox="3 -39.65 611.77 50.5" height="32.64486393723952" data-palette-color="#1c4b82"><path d="M3-34.55L9.35-34.55 9.35-5.25 20.5-5.25 19.8 0 3 0 3-34.55ZM42.55-13.85Q42.55-13.4 42.4-11.3L42.4-11.3 28.75-11.3Q28.95-7.2 30.17-5.58 31.4-3.95 33.65-3.95L33.65-3.95Q35.2-3.95 36.45-4.48 37.7-5 39.15-6.15L39.15-6.15 41.7-2.65Q38.2 0.75 33.3 0.75L33.3 0.75Q28.1 0.75 25.32-2.85 22.55-6.45 22.55-13L22.55-13Q22.55-19.55 25.2-23.35 27.85-27.15 32.7-27.15L32.7-27.15Q37.35-27.15 39.95-23.78 42.55-20.4 42.55-13.85L42.55-13.85ZM36.55-15.3L36.55-15.65Q36.55-19.4 35.65-21.13 34.75-22.85 32.75-22.85L32.75-22.85Q30.9-22.85 29.92-21.18 28.95-19.5 28.75-15.3L28.75-15.3 36.55-15.3ZM64.8-29.85L66.34-25.1Q65.3-24.6 63.82-24.4 62.35-24.2 60.15-24.2L60.15-24.2Q62.25-23.2 63.27-21.53 64.3-19.85 64.3-17.4L64.3-17.4Q64.3-13.4 61.85-10.95 59.4-8.5 55.2-8.5L55.2-8.5Q53.95-8.5 52.65-8.9L52.65-8.9Q51.75-8.15 51.75-6.85L51.75-6.85Q51.75-5.85 52.3-5.35 52.85-4.85 54.35-4.85L54.35-4.85 57.15-4.85Q61.15-4.85 63.5-2.78 65.84-0.7 65.84 2.5L65.84 2.5Q65.84 6.3 62.92 8.58 60 10.85 54.6 10.85L54.6 10.85Q48.9 10.85 46.62 8.75 44.35 6.65 44.35 2.6L44.35 2.6 49.8 2.6Q49.8 4.75 50.8 5.65 51.8 6.55 54.65 6.55L54.65 6.55Q57.4 6.55 58.55 5.6 59.7 4.65 59.7 2.9L59.7 2.9Q59.7 1.2 58.75 0.4 57.8-0.4 55.8-0.4L55.8-0.4 53.9-0.4Q50.1-0.4 48.35-1.75 46.6-3.1 46.6-5.45L46.6-5.45Q46.6-6.8 47.32-8.03 48.05-9.25 49.3-10.2L49.3-10.2Q47.25-11.5 46.3-13.3 45.35-15.1 45.35-17.7L45.35-17.7Q45.35-22.05 47.95-24.58 50.55-27.1 54.95-27.1L54.95-27.1Q58.2-27.1 60.32-27.8 62.45-28.5 64.8-29.85L64.8-29.85ZM54.95-23Q53.2-23 52.3-21.75 51.4-20.5 51.4-17.8L51.4-17.8Q51.4-15.25 52.3-13.88 53.2-12.5 54.9-12.5L54.9-12.5Q56.65-12.5 57.5-13.73 58.35-14.95 58.35-17.85L58.35-17.85Q58.35-20.55 57.52-21.78 56.7-23 54.95-23L54.95-23ZM85.99-6.4Q85.99-5.1 86.34-4.48 86.69-3.85 87.49-3.45L87.49-3.45 86.24 0.65Q84.19 0.4 82.97-0.45 81.74-1.3 81.14-3.05L81.14-3.05Q78.84 0.75 74.69 0.75L74.69 0.75Q71.39 0.75 69.44-1.48 67.49-3.7 67.49-7.4L67.49-7.4Q67.49-11.7 70.17-13.95 72.84-16.2 77.94-16.2L77.94-16.2 79.99-16.2 79.99-18.05Q79.99-20.55 79.12-21.58 78.24-22.6 76.29-22.6L76.29-22.6Q73.94-22.6 70.44-21.3L70.44-21.3 69.04-25.3Q71.04-26.2 73.19-26.68 75.34-27.15 77.29-27.15L77.29-27.15Q85.99-27.15 85.99-18.35L85.99-18.35 85.99-6.4ZM76.34-3.7Q78.74-3.7 79.99-7L79.99-7 79.99-12.55 78.54-12.55Q75.99-12.55 74.82-11.4 73.64-10.25 73.64-7.85L73.64-7.85Q73.64-5.8 74.34-4.75 75.04-3.7 76.34-3.7L76.34-3.7ZM97.39 0.75Q94.69 0.75 93.12-0.93 91.54-2.6 91.54-5.4L91.54-5.4 91.54-37.05 97.69-37.7 97.69-5.65Q97.69-5 97.99-4.6 98.29-4.2 98.89-4.2L98.89-4.2Q99.24-4.2 99.57-4.3 99.89-4.4 99.99-4.4L99.99-4.4 101.19-0.2Q99.49 0.75 97.39 0.75L97.39 0.75ZM121.44-27.15Q126.14-27.15 129.39-24.05L129.39-24.05 127.04-20.7Q125.64-21.7 124.39-22.2 123.14-22.7 121.84-22.7L121.84-22.7Q120.39-22.7 119.56-21.93 118.74-21.15 118.74-19.8L118.74-19.8Q118.74-18.45 119.66-17.63 120.59-16.8 123.39-15.7L123.39-15.7Q126.84-14.35 128.49-12.5 130.14-10.65 130.14-7.55L130.14-7.55Q130.14-3.7 127.44-1.48 124.74 0.75 120.59 0.75L120.59 0.75Q117.89 0.75 115.61-0.23 113.34-1.2 111.64-2.95L111.64-2.95 114.64-6.25Q117.44-3.8 120.34-3.8L120.34-3.8Q121.99-3.8 122.94-4.67 123.89-5.55 123.89-7.1L123.89-7.1Q123.89-8.25 123.49-8.97 123.09-9.7 122.09-10.33 121.09-10.95 119.09-11.7L119.09-11.7Q115.64-13.05 114.16-14.85 112.69-16.65 112.69-19.45L112.69-19.45Q112.69-22.8 115.06-24.98 117.44-27.15 121.44-27.15L121.44-27.15ZM143.38-27.15Q148.38-27.15 151.16-23.65 153.93-20.15 153.93-13.25L153.93-13.25Q153.93-6.65 151.13-2.95 148.33 0.75 143.38 0.75L143.38 0.75Q138.43 0.75 135.63-2.88 132.83-6.5 132.83-13.25L132.83-13.25Q132.83-19.95 135.63-23.55 138.43-27.15 143.38-27.15L143.38-27.15ZM143.38-22.5Q141.23-22.5 140.23-20.38 139.23-18.25 139.23-13.25L139.23-13.25Q139.23-8.2 140.23-6.08 141.23-3.95 143.38-3.95L143.38-3.95Q145.53-3.95 146.53-6.08 147.53-8.2 147.53-13.25L147.53-13.25Q147.53-18.3 146.53-20.4 145.53-22.5 143.38-22.5L143.38-22.5ZM164.08 0.75Q161.38 0.75 159.81-0.93 158.23-2.6 158.23-5.4L158.23-5.4 158.23-37.05 164.38-37.7 164.38-5.65Q164.38-5 164.68-4.6 164.98-4.2 165.58-4.2L165.58-4.2Q165.93-4.2 166.26-4.3 166.58-4.4 166.68-4.4L166.68-4.4 167.88-0.2Q166.18 0.75 164.08 0.75L164.08 0.75ZM189.08-26.45L189.08 0 183.73 0 183.43-3.35Q182.18-1.3 180.63-0.28 179.08 0.75 177.03 0.75L177.03 0.75Q174.13 0.75 172.45-1.3 170.78-3.35 170.78-6.65L170.78-6.65 170.78-26.45 176.93-26.45 176.93-7Q176.93-3.9 179.03-3.9L179.03-3.9Q180.23-3.9 181.18-4.83 182.13-5.75 182.93-7.45L182.93-7.45 182.93-26.45 189.08-26.45ZM205.93-5L208.08-1.2Q205.63 0.75 202.33 0.75L202.33 0.75Q198.88 0.75 197.08-1.23 195.28-3.2 195.28-6.6L195.28-6.6 195.28-22 192.18-22 192.18-26.45 195.28-26.45 195.28-32.3 201.43-33.05 201.43-26.45 206.43-26.45 205.83-22 201.43-22 201.43-6.6Q201.43-4.2 203.48-4.2L203.48-4.2Q204.13-4.2 204.63-4.38 205.13-4.55 205.93-5L205.93-5ZM210.62-26.45L216.77-26.45 216.77 0 210.62 0 210.62-26.45ZM213.67-39.65Q215.32-39.65 216.35-38.6 217.37-37.55 217.37-35.9L217.37-35.9Q217.37-34.3 216.35-33.25 215.32-32.2 213.67-32.2L213.67-32.2Q212.02-32.2 211-33.25 209.97-34.3 209.97-35.9L209.97-35.9Q209.97-37.55 211-38.6 212.02-39.65 213.67-39.65L213.67-39.65ZM231.87-27.15Q236.87-27.15 239.65-23.65 242.42-20.15 242.42-13.25L242.42-13.25Q242.42-6.65 239.62-2.95 236.82 0.75 231.87 0.75L231.87 0.75Q226.92 0.75 224.12-2.88 221.32-6.5 221.32-13.25L221.32-13.25Q221.32-19.95 224.12-23.55 226.92-27.15 231.87-27.15L231.87-27.15ZM231.87-22.5Q229.72-22.5 228.72-20.38 227.72-18.25 227.72-13.25L227.72-13.25Q227.72-8.2 228.72-6.08 229.72-3.95 231.87-3.95L231.87-3.95Q234.02-3.95 235.02-6.08 236.02-8.2 236.02-13.25L236.02-13.25Q236.02-18.3 235.02-20.4 234.02-22.5 231.87-22.5L231.87-22.5ZM259.32-27.15Q262.17-27.15 263.82-25.1 265.47-23.05 265.47-19.6L265.47-19.6 265.47 0 259.32 0 259.32-18.9Q259.32-20.8 258.79-21.63 258.27-22.45 257.27-22.45L257.27-22.45Q255.17-22.45 253.12-18.5L253.12-18.5 253.12 0 246.97 0 246.97-26.45 252.32-26.45 252.77-23Q254.12-25.1 255.64-26.13 257.17-27.15 259.32-27.15L259.32-27.15ZM278.37-27.15Q283.06-27.15 286.31-24.05L286.31-24.05 283.97-20.7Q282.56-21.7 281.31-22.2 280.06-22.7 278.77-22.7L278.77-22.7Q277.31-22.7 276.49-21.93 275.67-21.15 275.67-19.8L275.67-19.8Q275.67-18.45 276.59-17.63 277.52-16.8 280.31-15.7L280.31-15.7Q283.77-14.35 285.42-12.5 287.06-10.65 287.06-7.55L287.06-7.55Q287.06-3.7 284.37-1.48 281.67 0.75 277.52 0.75L277.52 0.75Q274.81 0.75 272.54-0.23 270.27-1.2 268.56-2.95L268.56-2.95 271.56-6.25Q274.37-3.8 277.27-3.8L277.27-3.8Q278.92-3.8 279.87-4.67 280.81-5.55 280.81-7.1L280.81-7.1Q280.81-8.25 280.42-8.97 280.02-9.7 279.02-10.33 278.02-10.95 276.02-11.7L276.02-11.7Q272.56-13.05 271.09-14.85 269.62-16.65 269.62-19.45L269.62-19.45Q269.62-22.8 271.99-24.98 274.37-27.15 278.37-27.15L278.37-27.15ZM293.31-7.05Q294.91-7.05 295.94-5.98 296.96-4.9 296.96-3.25L296.96-3.25Q296.96-2.55 296.74-1.78 296.51-1 296.16-0.08 295.81 0.85 295.71 1.2L295.71 1.2 293.06 8.55 289.61 8.55 291.41 0.1Q289.61-1.2 289.61-3.2L289.61-3.2Q289.61-4.85 290.66-5.95 291.71-7.05 293.31-7.05L293.31-7.05ZM322.36-5L324.51-1.2Q322.06 0.75 318.76 0.75L318.76 0.75Q315.31 0.75 313.51-1.23 311.71-3.2 311.71-6.6L311.71-6.6 311.71-22 308.61-22 308.61-26.45 311.71-26.45 311.71-32.3 317.86-33.05 317.86-26.45 322.86-26.45 322.26-22 317.86-22 317.86-6.6Q317.86-4.2 319.91-4.2L319.91-4.2Q320.56-4.2 321.06-4.38 321.56-4.55 322.36-5L322.36-5ZM343.96-6.4Q343.96-5.1 344.31-4.48 344.66-3.85 345.46-3.45L345.46-3.45 344.21 0.65Q342.16 0.4 340.93-0.45 339.71-1.3 339.11-3.05L339.11-3.05Q336.81 0.75 332.66 0.75L332.66 0.75Q329.36 0.75 327.41-1.48 325.46-3.7 325.46-7.4L325.46-7.4Q325.46-11.7 328.13-13.95 330.81-16.2 335.91-16.2L335.91-16.2 337.96-16.2 337.96-18.05Q337.96-20.55 337.08-21.58 336.21-22.6 334.26-22.6L334.26-22.6Q331.91-22.6 328.41-21.3L328.41-21.3 327.01-25.3Q329.01-26.2 331.16-26.68 333.31-27.15 335.26-27.15L335.26-27.15Q343.96-27.15 343.96-18.35L343.96-18.35 343.96-6.4ZM334.31-3.7Q336.71-3.7 337.96-7L337.96-7 337.96-12.55 336.51-12.55Q333.96-12.55 332.78-11.4 331.61-10.25 331.61-7.85L331.61-7.85Q331.61-5.8 332.31-4.75 333.01-3.7 334.31-3.7L334.31-3.7ZM349.75-26.45L355.9-26.45 355.9 0 349.75 0 349.75-26.45ZM352.8-39.65Q354.45-39.65 355.48-38.6 356.5-37.55 356.5-35.9L356.5-35.9Q356.5-34.3 355.48-33.25 354.45-32.2 352.8-32.2L352.8-32.2Q351.15-32.2 350.13-33.25 349.1-34.3 349.1-35.9L349.1-35.9Q349.1-37.55 350.13-38.6 351.15-39.65 352.8-39.65L352.8-39.65ZM367.2 0.75Q364.5 0.75 362.93-0.93 361.35-2.6 361.35-5.4L361.35-5.4 361.35-37.05 367.5-37.7 367.5-5.65Q367.5-5 367.8-4.6 368.1-4.2 368.7-4.2L368.7-4.2Q369.05-4.2 369.38-4.3 369.7-4.4 369.8-4.4L369.8-4.4 371-0.2Q369.3 0.75 367.2 0.75L367.2 0.75ZM383.45-27.15Q388.45-27.15 391.22-23.65 394-20.15 394-13.25L394-13.25Q394-6.65 391.2-2.95 388.4 0.75 383.45 0.75L383.45 0.75Q378.5 0.75 375.7-2.88 372.9-6.5 372.9-13.25L372.9-13.25Q372.9-19.95 375.7-23.55 378.5-27.15 383.45-27.15L383.45-27.15ZM383.45-22.5Q381.3-22.5 380.3-20.38 379.3-18.25 379.3-13.25L379.3-13.25Q379.3-8.2 380.3-6.08 381.3-3.95 383.45-3.95L383.45-3.95Q385.6-3.95 386.6-6.08 387.6-8.2 387.6-13.25L387.6-13.25Q387.6-18.3 386.6-20.4 385.6-22.5 383.45-22.5L383.45-22.5ZM410.2-27.1Q411.35-27.1 412.25-26.75L412.25-26.75 411.25-20.85Q410.25-21.1 409.4-21.1L409.4-21.1Q407.5-21.1 406.4-19.45 405.3-17.8 404.7-14.55L404.7-14.55 404.7 0 398.55 0 398.55-26.45 403.9-26.45 404.35-21.85Q406.2-27.1 410.2-27.1L410.2-27.1ZM433.94-13.85Q433.94-13.4 433.79-11.3L433.79-11.3 420.14-11.3Q420.34-7.2 421.57-5.58 422.79-3.95 425.04-3.95L425.04-3.95Q426.59-3.95 427.84-4.48 429.09-5 430.54-6.15L430.54-6.15 433.09-2.65Q429.59 0.75 424.69 0.75L424.69 0.75Q419.49 0.75 416.72-2.85 413.94-6.45 413.94-13L413.94-13Q413.94-19.55 416.59-23.35 419.24-27.15 424.09-27.15L424.09-27.15Q428.74-27.15 431.34-23.78 433.94-20.4 433.94-13.85L433.94-13.85ZM427.94-15.3L427.94-15.65Q427.94-19.4 427.04-21.13 426.14-22.85 424.14-22.85L424.14-22.85Q422.29-22.85 421.32-21.18 420.34-19.5 420.14-15.3L420.14-15.3 427.94-15.3ZM451.19-37.7L457.34-37.05 457.34 0 451.89 0 451.59-3.05Q449.24 0.75 445.54 0.75L445.54 0.75Q441.44 0.75 439.27-2.93 437.09-6.6 437.09-13.2L437.09-13.2Q437.09-17.4 438.22-20.58 439.34-23.75 441.34-25.45 443.34-27.15 445.94-27.15L445.94-27.15Q449.14-27.15 451.19-24.5L451.19-24.5 451.19-37.7ZM447.29-3.9Q448.44-3.9 449.37-4.7 450.29-5.5 451.19-7L451.19-7 451.19-19.85Q449.59-22.55 447.54-22.55L447.54-22.55Q443.49-22.55 443.49-13.25L443.49-13.25Q443.49-8.2 444.49-6.05 445.49-3.9 447.29-3.9L447.29-3.9ZM482.59-33.05Q481.19-33.05 480.51-32.3 479.84-31.55 479.84-30L479.84-30 479.84-26.45 484.89-26.45 484.19-22 479.84-22 479.84 0 473.69 0 473.69-22 470.39-22 470.39-26.45 473.69-26.45 473.69-29.8Q473.69-33.4 475.79-35.55 477.89-37.7 481.79-37.7L481.79-37.7Q484.84-37.7 487.69-36.2L487.69-36.2 485.99-32.2Q484.24-33.05 482.59-33.05L482.59-33.05ZM497.08-27.15Q502.08-27.15 504.86-23.65 507.63-20.15 507.63-13.25L507.63-13.25Q507.63-6.65 504.83-2.95 502.03 0.75 497.08 0.75L497.08 0.75Q492.13 0.75 489.33-2.88 486.53-6.5 486.53-13.25L486.53-13.25Q486.53-19.95 489.33-23.55 492.13-27.15 497.08-27.15L497.08-27.15ZM497.08-22.5Q494.93-22.5 493.93-20.38 492.93-18.25 492.93-13.25L492.93-13.25Q492.93-8.2 493.93-6.08 494.93-3.95 497.08-3.95L497.08-3.95Q499.23-3.95 500.23-6.08 501.23-8.2 501.23-13.25L501.23-13.25Q501.23-18.3 500.23-20.4 499.23-22.5 497.08-22.5L497.08-22.5ZM523.83-27.1Q524.98-27.1 525.88-26.75L525.88-26.75 524.88-20.85Q523.88-21.1 523.03-21.1L523.03-21.1Q521.13-21.1 520.03-19.45 518.93-17.8 518.33-14.55L518.33-14.55 518.33 0 512.18 0 512.18-26.45 517.53-26.45 517.98-21.85Q519.83-27.1 523.83-27.1L523.83-27.1ZM557.23-26.45L550.23 0.1Q548.93 4.9 546.02 7.65 543.13 10.4 538.27 10.85L538.27 10.85 537.58 6.5Q540.73 5.85 542.3 4.42 543.88 3 544.77 0L544.77 0 542.48 0 535.77-26.45 542.02-26.45 546.43-4.1 551.13-26.45 557.23-26.45ZM569.52-27.15Q574.52-27.15 577.3-23.65 580.07-20.15 580.07-13.25L580.07-13.25Q580.07-6.65 577.27-2.95 574.47 0.75 569.52 0.75L569.52 0.75Q564.57 0.75 561.77-2.88 558.97-6.5 558.97-13.25L558.97-13.25Q558.97-19.95 561.77-23.55 564.57-27.15 569.52-27.15L569.52-27.15ZM569.52-22.5Q567.37-22.5 566.37-20.38 565.37-18.25 565.37-13.25L565.37-13.25Q565.37-8.2 566.37-6.08 567.37-3.95 569.52-3.95L569.52-3.95Q571.67-3.95 572.67-6.08 573.67-8.2 573.67-13.25L573.67-13.25Q573.67-18.3 572.67-20.4 571.67-22.5 569.52-22.5L569.52-22.5ZM602.77-26.45L602.77 0 597.42 0 597.12-3.35Q595.87-1.3 594.32-0.28 592.77 0.75 590.72 0.75L590.72 0.75Q587.82 0.75 586.14-1.3 584.47-3.35 584.47-6.65L584.47-6.65 584.47-26.45 590.62-26.45 590.62-7Q590.62-3.9 592.72-3.9L592.72-3.9Q593.92-3.9 594.87-4.83 595.82-5.75 596.62-7.45L596.62-7.45 596.62-26.45 602.77-26.45ZM610.97-7.05Q612.67-7.05 613.72-5.9 614.77-4.75 614.77-3.15L614.77-3.15Q614.77-1.55 613.72-0.4 612.67 0.75 610.97 0.75L610.97 0.75Q609.32 0.75 608.24-0.4 607.17-1.55 607.17-3.15L607.17-3.15Q607.17-4.75 608.24-5.9 609.32-7.05 610.97-7.05L610.97-7.05Z" opacity="1" transform="matrix(1,0,0,1,0,0)" fill="#1c4b82" class="slogan-text-1" data-fill-palette-color="secondary" id="text-1"></path></svg></g></svg></g></svg></g></svg></g></svg></g><defs></defs></svg><rect width="395.5199999999999" height="101.04756776222044" fill="none" stroke="none" visibility="hidden"></rect></g></svg></g></svg>
